<svg width="112" height="23" viewBox="0 0 112 23" fill="none" xmlns="http://www.w3.org/2000/svg">
<path d="M20.11 22L20.08 8.07995L13.18 19.6H11.44L4.54001 8.25995V22H0.820007V0.999951H4.03001L12.37 14.92L20.56 0.999951H23.77L23.8 22H20.11Z" fill="#333333"/>
<path d="M39.2824 22.3C37.1424 22.3 35.2124 21.84 33.4924 20.92C31.7724 19.98 30.4224 18.69 29.4424 17.05C28.4624 15.39 27.9724 13.54 27.9724 11.5C27.9724 9.45995 28.4624 7.61995 29.4424 5.97995C30.4224 4.31995 31.7724 3.02995 33.4924 2.10995C35.2124 1.16995 37.1424 0.699951 39.2824 0.699951C41.4224 0.699951 43.3524 1.16995 45.0724 2.10995C46.7924 3.02995 48.1424 4.30995 49.1224 5.94995C50.1024 7.58995 50.5924 9.43995 50.5924 11.5C50.5924 13.56 50.1024 15.41 49.1224 17.05C48.1424 18.69 46.7924 19.98 45.0724 20.92C43.3524 21.84 41.4224 22.3 39.2824 22.3ZM39.2824 18.88C40.6824 18.88 41.9424 18.57 43.0624 17.95C44.1824 17.31 45.0624 16.43 45.7024 15.31C46.3424 14.17 46.6624 12.9 46.6624 11.5C46.6624 10.1 46.3424 8.83995 45.7024 7.71995C45.0624 6.57995 44.1824 5.69995 43.0624 5.07995C41.9424 4.43995 40.6824 4.11995 39.2824 4.11995C37.8824 4.11995 36.6223 4.43995 35.5023 5.07995C34.3823 5.69995 33.5024 6.57995 32.8624 7.71995C32.2224 8.83995 31.9024 10.1 31.9024 11.5C31.9024 12.9 32.2224 14.17 32.8624 15.31C33.5024 16.43 34.3823 17.31 35.5023 17.95C36.6223 18.57 37.8824 18.88 39.2824 18.88Z" fill="#333333"/>
<path d="M73.2524 0.999951L64.1024 22H60.2624L51.0824 0.999951H55.3124L62.3024 17.2L69.3524 0.999951H73.2524Z" fill="#333333"/>
<path d="M91.2184 18.73V22H75.4684V0.999951H90.7984V4.26995H79.3684V9.72995H89.5084V12.94H79.3684V18.73H91.2184Z" fill="#333333"/>
<path d="M111.316 18.73V22H95.5661V0.999951H110.896V4.26995H99.4661V9.72995H109.606V12.94H99.4661V18.73H111.316Z" fill="#333333"/>
</svg>
